<svg width="12" height="12" viewBox="0 0 12 12" fill="none" xmlns="http://www.w3.org/2000/svg">
<path d="M11.0049 5.278C10.5199 5.68 9.92153 6.17641 9.34614 6.65495C9.03464 8.37961 7.51531 9.69249 5.69363 9.69249C4.89041 9.69249 4.14604 9.43722 3.53806 9.00398L2.27522 10.105C3.20373 10.872 4.39543 11.3334 5.69363 11.3334C7.13014 11.3334 8.43635 10.7682 9.39969 9.84959V11.3334H11.0539C11.0539 11.3334 11.0901 5.90093 11.0049 5.278Z" fill="#16A26B"/>
<path d="M10.8628 4.58728C11.321 4.20763 11.6276 3.95391 11.6276 3.95391V1.62604L10.1467 3.03422C10.0257 2.85519 8.60563 0.666748 5.69376 0.666748C2.78189 0.666748 0.333496 3.05922 0.333496 6.00014C0.333496 7.6582 1.08286 8.91528 1.81669 9.67925L5.51786 6.45183L6.60963 7.53767C6.79329 7.72042 7.0872 7.73252 7.28538 7.56548C7.88319 7.06158 8.97326 6.15514 9.91148 5.37642C10.2607 5.08668 10.5888 4.81426 10.8628 4.58728ZM6.89022 6.13056L5.86604 5.11012C5.66442 4.9092 5.33468 4.91694 5.14288 5.12732L2.55437 7.96718C2.29498 7.55924 1.98271 6.89405 1.98271 6.00014C1.98271 3.96416 3.6474 2.30785 5.69358 2.30785C7.81891 2.30785 8.78635 3.94132 8.92863 4.1924L6.89022 6.13056Z" fill="#16A26B"/>
</svg>
